<?xml version="1.0" encoding="UTF-8" standalone="no"?>
<!-- Created with Inkscape (http://www.inkscape.org/) -->

<svg
   width="162.19891mm"
   height="26.458349mm"
   viewBox="0 0 162.19891 26.458349"
   version="1.1"
   id="svg1"
   xmlns:xlink="http://www.w3.org/1999/xlink"
   xmlns="http://www.w3.org/2000/svg"
   xmlns:svg="http://www.w3.org/2000/svg">
  <defs
     id="defs1">
    <linearGradient
       id="linearGradient1">
      <stop
         style="stop-color:#18181b;stop-opacity:0.47308782;"
         offset="0"
         id="stop1" />
      <stop
         style="stop-color:#3f3f46;stop-opacity:1;"
         offset="0.52620965"
         id="stop2" />
    </linearGradient>
    <linearGradient
       xlink:href="#linearGradient1"
       id="linearGradient2"
       x1="8.446147"
       y1="172.18761"
       x2="26.826027"
       y2="191.22054"
       gradientUnits="userSpaceOnUse" />
  </defs>
  <g
     id="layer1"
     transform="translate(-25.66971,-175.32717)">
    <circle
       id="path3"
       style="fill:#ff0000;stroke:#000000;stroke-width:0.264583"
       cx="48.186501"
       cy="201.63606"
       r="0.017161487" />
    <g
       id="g1"
       transform="translate(21.263054,-33.20407)">
      <g
         id="g2">
        <g
           id="g3"
           transform="translate(0,40.056346)">
          <path
             id="path1"
             style="fill:url(#linearGradient2);stroke-width:0.273797"
             d="m 4.4066541,168.4749 v 26.45834 h 0.0212 C 18.977172,194.916 30.7851,183.16347 30.865524,168.6196 v -0.1447 z" />
          <g
             id="text3"
             style="font-size:33.411px;letter-spacing:-2.42028px;fill:#1a1a1a;stroke-width:2.78423"
             transform="scale(0.94962217,1.0530504)"
             aria-label=" ProsFindr">
            <path
               style="font-family:'Libre Franklin';-inkscape-font-specification:'Libre Franklin, @wght=800';font-variation-settings:'wght' 800;letter-spacing:-2.24896px;fill:#3f3f46;fill-opacity:1"
               d="m 55.201857,167.87268 c 0,1.626 -0.389795,3.01812 -1.169385,4.17637 -0.757316,1.15825 -1.815331,2.04921 -3.174045,2.67288 -1.358714,0.6014 -2.951305,0.9021 -4.777773,0.9021 h -4.777772 c -0.245014,0 -0.367521,0.11137 -0.367521,0.33411 v 7.95181 c 0,0.57913 -0.33411,0.86869 -1.00233,0.86869 h -4.978239 c -0.289562,0 -0.490028,-0.0557 -0.601398,-0.16705 -0.11137,-0.13365 -0.167055,-0.33411 -0.167055,-0.6014 v -23.32088 c 0,-0.46775 0.189329,-0.70163 0.567987,-0.70163 h 10.557875 c 1.826468,0 3.485881,0.28956 4.978239,0.86869 1.492358,0.55685 2.684017,1.42553 3.574977,2.60605 0.89096,1.15825 1.33644,2.62834 1.33644,4.41026 z m -6.882666,-0.10024 c 0,-0.64595 -0.155918,-1.19166 -0.467754,-1.63714 -0.289562,-0.44548 -0.690494,-0.77959 -1.202796,-1.00233 -0.512302,-0.24501 -1.091426,-0.36752 -1.737372,-0.36752 h -3.274277 c -0.467754,0 -0.701631,0.22274 -0.701631,0.66822 v 4.71095 c 0,0.44548 0.167055,0.66822 0.501165,0.66822 h 3.675209 c 0.980056,0 1.759646,-0.27842 2.33877,-0.83527 0.579124,-0.55685 0.868686,-1.2919 0.868686,-2.20513 z m 8.141846,17.0062 c -0.311836,0 -0.523439,-0.0557 -0.634809,-0.16705 -0.11137,-0.13365 -0.167055,-0.33411 -0.167055,-0.6014 v -16.23775 c 0,-0.46775 0.189329,-0.70163 0.567987,-0.70163 h 4.610718 c 0.356384,0 0.534576,0.20047 0.534576,0.6014 v 1.93784 c 0,0.15591 0.05569,0.25615 0.167055,0.3007 0.133644,0.0223 0.256151,-0.0446 0.367521,-0.20047 0.400932,-0.57913 0.879823,-1.09143 1.436673,-1.53691 0.55685,-0.44548 1.147111,-0.79073 1.770782,-1.03574 0.623672,-0.26729 1.191659,-0.40093 1.703961,-0.40093 0.824138,0 1.236207,0.2116 1.236207,0.63481 v 4.47707 c 0,0.42321 -0.200466,0.59026 -0.601398,0.50117 -0.44548,-0.11137 -0.924371,-0.18933 -1.436673,-0.23388 -0.490028,-0.0668 -0.879823,-0.10023 -1.169385,-0.10023 -0.400931,0 -0.790726,0.078 -1.169384,0.23388 -0.378658,0.13364 -0.735042,0.32297 -1.069152,0.56798 -0.311836,0.24501 -0.55685,0.52344 -0.735042,0.83528 -0.178192,0.31183 -0.267288,0.62367 -0.267288,0.93551 v 9.32166 c 0,0.57913 -0.33411,0.86869 -1.00233,0.86869 z m 19.447299,0.33411 c -1.804194,0 -3.396785,-0.38979 -4.777773,-1.16938 -1.358714,-0.77959 -2.427866,-1.84875 -3.207456,-3.20746 -0.757316,-1.38099 -1.135974,-2.9513 -1.135974,-4.71095 0,-1.87102 0.400932,-3.49702 1.202796,-4.87801 0.801864,-1.40326 1.89329,-2.48355 3.274278,-3.24086 1.380988,-0.77959 2.940168,-1.16939 4.67754,-1.16939 1.826468,0 3.419059,0.40093 4.777773,1.2028 1.380988,0.80186 2.45014,1.90442 3.207456,3.30769 0.77959,1.38099 1.169385,2.97358 1.169385,4.77777 0,1.75965 -0.389795,3.32996 -1.169385,4.71095 -0.77959,1.35871 -1.859879,2.42787 -3.240867,3.20746 -1.358714,0.77959 -2.951305,1.16938 -4.777773,1.16938 z m 0.03341,-3.87568 c 0.712768,0 1.303029,-0.18933 1.770783,-0.56798 0.467754,-0.37866 0.813001,-0.96892 1.035741,-1.77079 0.22274,-0.80186 0.33411,-1.80419 0.33411,-3.00699 0,-1.22507 -0.122507,-2.23853 -0.367521,-3.0404 -0.22274,-0.80186 -0.567987,-1.39212 -1.035741,-1.77078 -0.44548,-0.40093 -1.024604,-0.6014 -1.737372,-0.6014 -0.690494,0 -1.280755,0.20047 -1.770783,0.6014 -0.467754,0.37866 -0.813001,0.96892 -1.035741,1.77078 -0.22274,0.80187 -0.33411,1.81533 -0.33411,3.0404 0,1.22507 0.11137,2.23854 0.33411,3.04041 0.22274,0.77959 0.567987,1.35871 1.035741,1.73737 0.490028,0.37865 1.080289,0.56798 1.770783,0.56798 z m 20.370297,-9.32166 c -0.356384,-0.42321 -0.824138,-0.80187 -1.403262,-1.13598 -0.579124,-0.35638 -1.314166,-0.53457 -2.205126,-0.53457 -0.690494,0 -1.280755,0.13364 -1.770783,0.40093 -0.490028,0.24501 -0.735042,0.61253 -0.735042,1.10256 0,0.20047 0.0891,0.41207 0.267288,0.63481 0.178192,0.20047 0.612535,0.37866 1.303029,0.53458 l 3.67521,0.83527 c 1.982386,0.42321 3.374511,1.13597 4.176375,2.1383 0.801868,1.00233 1.202798,2.12717 1.202798,3.37452 0,1.22507 -0.34525,2.28308 -1.035743,3.17404 -0.690494,0.86869 -1.659413,1.53691 -2.906757,2.00466 -1.22507,0.44548 -2.650606,0.66822 -4.276608,0.66822 -2.071482,0 -3.808854,-0.35638 -5.212116,-1.06915 -1.403262,-0.71277 -2.383318,-1.57032 -2.940168,-2.57265 -0.0891,-0.17819 -0.133644,-0.34525 -0.133644,-0.50116 0,-0.17819 0.06682,-0.31184 0.200466,-0.40094 l 2.606058,-1.33644 c 0.267288,-0.11137 0.467754,-0.15591 0.601398,-0.13364 0.133644,0.0223 0.245014,0.0891 0.33411,0.20047 0.289562,0.35638 0.612535,0.70163 0.968919,1.03574 0.356384,0.31183 0.824138,0.57912 1.403262,0.80186 0.579124,0.20047 1.314166,0.28956 2.205126,0.26729 0.534576,-0.0223 1.024604,-0.0891 1.470084,-0.20047 0.44548,-0.11137 0.790727,-0.27842 1.035741,-0.50116 0.267288,-0.22274 0.400932,-0.50117 0.400932,-0.83528 0,-0.28956 -0.122507,-0.54571 -0.367521,-0.76845 -0.245014,-0.22274 -0.746179,-0.41207 -1.503495,-0.56799 l -3.407922,-0.66822 c -1.692824,-0.33411 -2.995853,-0.92437 -3.909087,-1.77078 -0.89096,-0.84641 -1.347577,-1.98239 -1.369851,-3.40792 0,-1.13597 0.300699,-2.14944 0.902097,-3.0404 0.601398,-0.91323 1.481221,-1.626 2.639469,-2.13831 1.180522,-0.5123 2.594921,-0.76845 4.243197,-0.76845 1.759646,0 3.263141,0.32297 4.510485,0.96892 1.269618,0.62367 2.160578,1.35872 2.67288,2.20513 0.111368,0.15591 0.189328,0.32297 0.233878,0.50116 0.0668,0.17819 -0.0111,0.31184 -0.233878,0.40093 l -2.739702,1.33644 c -0.200466,0.0891 -0.367521,0.11137 -0.501165,0.0668 -0.133644,-0.0445 -0.267288,-0.14477 -0.400932,-0.3007 z"
               id="path4" />
            <path
               style="font-family:'Libre Franklin';-inkscape-font-specification:'Libre Franklin, @wght=800';font-variation-settings:'wght' 800;letter-spacing:-2.24896px;fill:#fb7185"
               d="m 101.38009,160.68931 q 0,-0.70163 0.56798,-0.70163 h 17.24008 q 0.53458,0 0.53458,0.63481 v 3.47474 q 0,0.80187 -0.76846,0.80187 h -10.12353 q -0.70163,0 -0.70163,0.60139 v 4.07615 q 0,0.63481 0.53458,0.63481 h 6.64878 q 0.63481,0 0.63481,0.60139 v 3.6418 q 0,0.50117 -0.56798,0.50117 h -6.74903 q -0.50116,0 -0.50116,0.46775 v 8.48639 q 0,0.86869 -1.00233,0.86869 h -4.94483 q -0.46775,0 -0.63481,-0.16705 -0.16705,-0.20047 -0.16705,-0.6014 z m 24.68033,23.18723 q 0,0.50117 -0.23388,0.70163 -0.23387,0.20047 -0.76845,0.20047 h -4.14296 q -0.46776,0 -0.63481,-0.16705 -0.16706,-0.20047 -0.16706,-0.6014 v -16.23775 q 0,-0.70163 0.6014,-0.70163 h 4.77777 q 0.56799,0 0.56799,0.63481 z m 0.0334,-19.51202 q 0,0.9021 -1.03574,0.9021 h -4.17637 q -0.46776,0 -0.63481,-0.20047 -0.16706,-0.20046 -0.16706,-0.6014 v -3.74203 q 0,-0.73504 0.6014,-0.73504 h 4.81118 q 0.6014,0 0.6014,0.66822 z m 1.72695,20.41412 q -0.80186,0 -0.80186,-0.76845 v -16.23775 q 0,-0.70163 0.56798,-0.70163 h 4.74437 q 0.56798,0 0.56798,0.6014 v 1.60373 q 0,0.20046 0.10024,0.26729 0.10023,0.0334 0.3007,-0.13365 0.76845,-0.80186 1.63713,-1.40326 0.86869,-0.6014 1.8042,-0.93551 0.96892,-0.33411 2.03807,-0.33411 2.37218,0 3.80885,1.47009 1.47009,1.43667 1.47009,3.87567 v 11.79408 q 0,0.9021 -0.93551,0.9021 H 138.813 q -0.40093,0 -0.56799,-0.16705 -0.13364,-0.16706 -0.13364,-0.6014 v -11.09245 q 0,-0.93551 -0.56799,-1.43668 -0.53457,-0.50116 -1.5369,-0.50116 -0.6014,0 -1.13598,0.20046 -0.50116,0.20047 -0.96892,0.63481 -0.46775,0.40094 -0.9355,1.03574 v 11.05904 q 0,0.86869 -1.00233,0.86869 h -4.14297 z m 29.19081,0 q -0.33411,0 -0.56799,-0.13364 -0.20047,-0.16706 -0.20047,-0.56799 v -0.80186 q 0,-0.23388 -0.16705,-0.26729 -0.16706,-0.0334 -0.33411,0.13364 -0.56799,0.56799 -1.26962,1.03574 -0.66822,0.43435 -1.53691,0.66822 -0.86868,0.26729 -1.97125,0.26729 -2.00466,0 -3.54156,-1.00233 -1.53691,-1.03574 -2.40559,-3.0404 -0.86869,-2.03807 -0.86869,-5.04506 0,-2.80653 0.96892,-4.87801 1.00233,-2.10489 2.63947,-3.24086 1.63714,-1.16939 3.54156,-1.16939 1.23621,0 2.23854,0.40093 1.00233,0.40094 2.00466,1.33644 0.3007,0.20047 0.46776,0.16706 0.16705,-0.0334 0.16705,-0.43434 v -7.5843 q 0,-0.63481 0.53458,-0.63481 h 4.77777 q 0.6014,0 0.6014,0.70163 v 23.32088 q 0,0.40093 -0.16706,0.6014 -0.16705,0.16705 -0.66822,0.16705 z m -0.86869,-12.86323 q -0.63481,-0.70163 -1.26962,-1.06916 -0.6014,-0.36752 -1.50349,-0.36752 -0.9021,0 -1.67055,0.53458 -0.73505,0.53458 -1.13598,1.73737 -0.40093,1.2028 -0.40093,3.24087 0,2.00466 0.36752,3.24086 0.40093,1.2028 1.13598,1.73738 0.73504,0.50116 1.67055,0.50116 0.80186,0 1.40326,-0.33411 0.63481,-0.36752 1.00233,-0.93551 0.40093,-0.60139 0.40093,-1.26961 z m 7.70754,12.86323 q -0.46775,0 -0.6348,-0.16705 -0.16706,-0.20047 -0.16706,-0.6014 v -16.23775 q 0,-0.70163 0.56799,-0.70163 h 4.61072 q 0.53457,0 0.53457,0.6014 v 1.93784 q 0,0.23387 0.16706,0.3007 0.20046,0.0334 0.36752,-0.20047 0.6014,-0.86869 1.43667,-1.53691 0.83528,-0.66822 1.77078,-1.03574 0.93551,-0.40093 1.70396,-0.40093 1.23621,0 1.23621,0.63481 v 4.47707 q 0,0.63481 -0.6014,0.50117 -0.66822,-0.16706 -1.43667,-0.23388 -0.73504,-0.10023 -1.16938,-0.10023 -0.6014,0 -1.16939,0.23388 -0.56799,0.20046 -1.06915,0.56798 -0.46776,0.36752 -0.73504,0.83528 -0.26729,0.46775 -0.26729,0.93551 v 9.32166 q 0,0.86869 -1.00233,0.86869 z"
               id="path5" />
          </g>
        </g>
      </g>
    </g>
  </g>
</svg>
